#N canvas 115 158 1072 843 12;
#X obj 136 44 oscformat -f f vol;
#X obj 185 730 netsend -u -b;
#X obj 123 614 list prepend send;
#X obj 144 646 list trim;
#X obj 81 22 hsl 128 15 0 1 0 0 empty empty vol -2 -8 0 12 -262144
-1 -1 4900 1;
#X floatatom 73 40 5 0 0 0 - - -;
#X msg 230 637 connect localhost 33333;
#X msg 271 594 disconnect;
#X obj 81 97 hsl 128 15 0 1 0 0 empty empty intensity -2 -8 0 12 -262144
-1 -1 12700 1;
#X floatatom 73 115 5 0 0 0 - - -;
#X obj 69 167 hsl 128 15 50 300 0 0 empty empty freq -2 -8 0 12 -262144
-1 -1 5800 1;
#X floatatom 61 185 5 0 0 0 - - -;
#X obj 62 230 hsl 128 15 0 1 0 0 empty empty tenseness -2 -8 0 12 -262144
-1 -1 5400 1;
#X floatatom 54 248 5 0 0 0 - - -;
#X obj 55 296 hsl 128 15 0 1 0 0 empty empty loudness -2 -8 0 12 -262144
-1 -1 12700 1;
#X floatatom 47 314 5 0 0 0 - - -;
#X obj 48 439 hsl 128 15 0 1 0 0 empty empty vibgain -2 -8 0 12 -262144
-1 -1 0 1;
#X floatatom 40 457 5 0 0 0 - - -;
#X obj 48 359 hsl 128 15 1 20 0 0 empty empty vibfreq -2 -8 0 12 -262144
-1 -1 11500 1;
#X floatatom 40 377 5 0 0 0 - - -;
#X obj 33 512 hsl 128 15 0 1 0 0 empty empty vibwobble -2 -8 0 12 -262144
-1 -1 300 1;
#X floatatom 25 530 5 0 0 0 - - -;
#X obj 136 69 s oscmsg;
#X obj 210 152 s oscmsg;
#X obj 219 220 s oscmsg;
#X obj 191 281 s oscmsg;
#X obj 188 346 s oscmsg;
#X obj 102 488 s oscmsg;
#X obj 80 402 s oscmsg;
#X obj 84 560 s oscmsg;
#X obj 184 575 r oscmsg;
#X obj 159 125 oscformat -f f intensity;
#X obj 124 187 oscformat -f f freq;
#X obj 117 252 oscformat -f f tenseness;
#X obj 106 318 oscformat -f f loudness;
#X obj 103 461 oscformat -f f vibgain;
#X obj 102 381 oscformat -f f vibfreq;
#X obj 84 535 oscformat -f f vibwobble;
#X obj 384 45 hsl 128 15 0 30 0 0 empty empty tongueidx -2 -8 0 12
-262144 -1 -1 7200 1;
#X floatatom 376 63 5 0 0 0 - - -;
#X obj 439 92 s oscmsg;
#X obj 439 67 oscformat -f f tongueidx;
#X obj 399 133 hsl 128 15 0 20 0 0 empty empty tonguediam -2 -8 0 12
-262144 -1 -1 0 1;
#X floatatom 391 151 5 0 0 0 - - -;
#X obj 454 180 s oscmsg;
#X obj 453 156 oscformat -f f tonguediam;
#X obj 370 221 hsl 128 15 0 1 0 0 empty empty voiceness -2 -8 0 12
-262144 -1 -1 0 1;
#X floatatom 362 239 5 0 0 0 - - -;
#X obj 425 268 s oscmsg;
#X obj 423 243 oscformat -f f voiceness;
#X connect 0 0 22 0;
#X connect 2 0 3 0;
#X connect 3 0 1 0;
#X connect 4 0 5 0;
#X connect 4 0 0 0;
#X connect 6 0 1 0;
#X connect 7 0 1 0;
#X connect 8 0 9 0;
#X connect 8 0 31 0;
#X connect 10 0 11 0;
#X connect 10 0 32 0;
#X connect 12 0 13 0;
#X connect 12 0 33 0;
#X connect 14 0 15 0;
#X connect 14 0 34 0;
#X connect 16 0 17 0;
#X connect 16 0 35 0;
#X connect 18 0 19 0;
#X connect 18 0 36 0;
#X connect 20 0 21 0;
#X connect 20 0 37 0;
#X connect 30 0 2 0;
#X connect 31 0 23 0;
#X connect 32 0 24 0;
#X connect 33 0 25 0;
#X connect 34 0 26 0;
#X connect 35 0 27 0;
#X connect 36 0 28 0;
#X connect 37 0 29 0;
#X connect 38 0 39 0;
#X connect 38 0 41 0;
#X connect 41 0 40 0;
#X connect 42 0 43 0;
#X connect 42 0 45 0;
#X connect 45 0 44 0;
#X connect 46 0 47 0;
#X connect 46 0 49 0;
#X connect 49 0 48 0;
