#N canvas 115 158 1072 843 12;
#X obj 136 44 oscformat -f f vol;
#X obj 185 730 netsend -u -b;
#X obj 123 614 list prepend send;
#X obj 144 646 list trim;
#X obj 81 22 hsl 128 15 0 1 0 0 empty empty vol -2 -8 0 12 -262144
-1 -1 0 1;
#X floatatom 73 40 5 0 0 0 - - -;
#X msg 271 594 disconnect;
#X obj 81 97 hsl 128 15 0 1 0 0 empty empty intensity -2 -8 0 12 -262144
-1 -1 0 1;
#X floatatom 73 115 5 0 0 0 - - -;
#X obj 69 167 hsl 128 15 50 300 0 0 empty empty freq -2 -8 0 12 -262144
-1 -1 0 1;
#X floatatom 61 185 5 0 0 0 - - -;
#X obj 62 230 hsl 128 15 0 1 0 0 empty empty tenseness -2 -8 0 12 -262144
-1 -1 0 1;
#X floatatom 54 248 5 0 0 0 - - -;
#X obj 55 296 hsl 128 15 0 1 0 0 empty empty loudness -2 -8 0 12 -262144
-1 -1 0 1;
#X floatatom 47 314 5 0 0 0 - - -;
#X obj 48 439 hsl 128 15 0 1 0 0 empty empty vibgain -2 -8 0 12 -262144
-1 -1 0 1;
#X floatatom 40 457 5 0 0 0 - - -;
#X obj 48 359 hsl 128 15 1 20 0 0 empty empty vibfreq -2 -8 0 12 -262144
-1 -1 0 1;
#X floatatom 40 377 5 0 0 0 - - -;
#X obj 33 512 hsl 128 15 0 1 0 0 empty empty vibwobble -2 -8 0 12 -262144
-1 -1 0 1;
#X floatatom 25 530 5 0 0 0 - - -;
#X obj 136 69 s oscmsg;
#X obj 210 152 s oscmsg;
#X obj 219 220 s oscmsg;
#X obj 191 281 s oscmsg;
#X obj 188 346 s oscmsg;
#X obj 102 488 s oscmsg;
#X obj 80 402 s oscmsg;
#X obj 84 560 s oscmsg;
#X obj 184 575 r oscmsg;
#X obj 159 125 oscformat -f f intensity;
#X obj 124 187 oscformat -f f freq;
#X obj 117 252 oscformat -f f tenseness;
#X obj 106 318 oscformat -f f loudness;
#X obj 103 461 oscformat -f f vibgain;
#X obj 102 381 oscformat -f f vibfreq;
#X obj 84 535 oscformat -f f vibwobble;
#X obj 384 45 hsl 128 15 0 30 0 0 empty empty tongueidx -2 -8 0 12
-262144 -1 -1 0 1;
#X floatatom 376 63 5 0 0 0 - - -;
#X obj 439 92 s oscmsg;
#X obj 439 67 oscformat -f f tongueidx;
#X obj 399 133 hsl 128 15 0 20 0 0 empty empty tonguediam -2 -8 0 12
-262144 -1 -1 0 1;
#X floatatom 391 151 5 0 0 0 - - -;
#X obj 454 180 s oscmsg;
#X obj 453 156 oscformat -f f tonguediam;
#X obj 370 221 hsl 128 15 0 1 0 0 empty empty voiceness -2 -8 0 12
-262144 -1 -1 0 1;
#X floatatom 362 239 5 0 0 0 - - -;
#X obj 425 268 s oscmsg;
#X obj 423 243 oscformat -f f voiceness;
#X floatatom 483 324 5 0 0 0 - - -;
#X obj 537 437 s oscmsg;
#X msg 230 637 connect localhost 6448;
#X obj 537 355 pack f f f f f f f f f f f;
#X obj 665 137 vsl 15 128 0 127 0 0 empty empty empty 0 -9 0 10 -262144
-1 -1 3400 1;
#X obj 696 138 vsl 15 128 0 127 0 0 empty empty empty 0 -9 0 10 -262144
-1 -1 3400 1;
#X obj 758 141 vsl 15 128 0 127 0 0 empty empty empty 0 -9 0 10 -262144
-1 -1 3500 1;
#X obj 789 141 vsl 15 128 0 127 0 0 empty empty empty 0 -9 0 10 -262144
-1 -1 4800 1;
#X obj 879 151 vsl 15 128 0 127 0 0 empty empty empty 0 -9 0 10 -262144
-1 -1 3100 1;
#X obj 912 151 vsl 15 128 0 127 0 0 empty empty empty 0 -9 0 10 -262144
-1 -1 3300 1;
#X obj 950 159 vsl 15 128 0 127 0 0 empty empty empty 0 -9 0 10 -262144
-1 -1 2500 1;
#X obj 641 132 vsl 15 128 0 127 0 0 empty empty empty 0 -9 0 10 -262144
-1 -1 2900 1;
#X obj 818 142 vsl 15 128 0 127 0 0 empty empty empty 0 -9 0 10 -262144
-1 -1 1800 1;
#X obj 853 146 vsl 15 128 0 127 0 0 empty empty empty 0 -9 0 10 -262144
-1 -1 3700 1;
#X obj 726 138 vsl 15 128 0 127 0 0 empty empty empty 0 -9 0 10 -262144
-1 -1 2800 1;
#X obj 537 394 oscformat -f fffffffffff wek inputs;
#X connect 0 0 21 0;
#X connect 2 0 3 0;
#X connect 3 0 1 0;
#X connect 4 0 5 0;
#X connect 4 0 0 0;
#X connect 6 0 1 0;
#X connect 7 0 8 0;
#X connect 7 0 30 0;
#X connect 9 0 10 0;
#X connect 9 0 31 0;
#X connect 11 0 12 0;
#X connect 11 0 32 0;
#X connect 13 0 14 0;
#X connect 13 0 33 0;
#X connect 15 0 16 0;
#X connect 15 0 34 0;
#X connect 17 0 18 0;
#X connect 17 0 35 0;
#X connect 19 0 20 0;
#X connect 19 0 36 0;
#X connect 29 0 2 0;
#X connect 30 0 22 0;
#X connect 31 0 23 0;
#X connect 32 0 24 0;
#X connect 33 0 25 0;
#X connect 34 0 26 0;
#X connect 35 0 27 0;
#X connect 36 0 28 0;
#X connect 37 0 38 0;
#X connect 37 0 40 0;
#X connect 40 0 39 0;
#X connect 41 0 42 0;
#X connect 41 0 44 0;
#X connect 44 0 43 0;
#X connect 45 0 46 0;
#X connect 45 0 48 0;
#X connect 48 0 47 0;
#X connect 51 0 1 0;
#X connect 52 0 64 0;
#X connect 53 0 52 1;
#X connect 54 0 52 2;
#X connect 55 0 52 4;
#X connect 56 0 52 5;
#X connect 57 0 52 8;
#X connect 58 0 52 9;
#X connect 59 0 52 10;
#X connect 60 0 52 0;
#X connect 60 0 49 0;
#X connect 61 0 52 6;
#X connect 62 0 52 7;
#X connect 63 0 52 3;
#X connect 64 0 50 0;
